<svg xmlns="http://www.w3.org/2000/svg" viewBox="0 0 160 160"><g fill-rule="evenodd"><path d="M62.448 123.737c0 2.63-2.215 4.766-4.944 4.766-2.73 0-4.944-2.136-4.944-4.766V70.172c0-2.63 2.213-4.766 4.944-4.766 2.73 0 4.944 2.136 4.944 4.766v53.565zM85.05 123.737c0 2.63-2.215 4.766-4.945 4.766-2.73 0-4.945-2.136-4.945-4.766V70.172c0-2.63 2.215-4.766 4.945-4.766 2.73 0 4.945 2.136 4.945 4.766v53.565zM107.652 123.737c0 2.63-2.215 4.766-4.945 4.766-2.73 0-4.943-2.136-4.943-4.766V70.172c0-2.63 2.214-4.766 4.943-4.766 2.73 0 4.945 2.136 4.945 4.766v53.565z"/><path d="M125.896 17.378h-23.76v-5.023c0-6.75-5.49-12.243-12.24-12.243h-19.58c-6.752 0-12.244 5.492-12.244 12.243v5.023H34.314c-8.418 0-15.264 6.847-15.264 15.265V51.75h6.59v94.607c0 7.29 5.493 13.222 12.243 13.222h85.696c6.75 0 12.24-5.932 12.24-13.223V51.75h5.34V32.645c0-8.42-6.844-15.266-15.264-15.266zM67.49 12.355c0-1.532 1.293-2.826 2.826-2.826h19.58c1.53 0 2.825 1.293 2.825 2.825v5.023H67.49v-5.023zm58.915 134.002c0 1.654-1.293 3.05-2.825 3.05H37.883c-1.53 0-2.825-1.396-2.825-3.05V51.75h91.347v94.607zM29.225 42.334v-9.69c0-2.806 2.283-5.09 5.09-5.09h91.58c2.81 0 5.087 2.284 5.087 5.09v9.69H29.226z"/></g></svg>
