<svg xmlns="http://www.w3.org/2000/svg" viewBox="0 0 160 160"><path fill-rule="evenodd" d="M160 30.313c-5.938 2.656-12.188 4.453-18.906 5.234 6.875-4.063 12.03-10.547 14.453-18.203-6.25 3.75-13.36 6.484-20.703 7.968C128.672 19.063 120.156 15 110.704 15c-18.126 0-32.735 14.61-32.735 32.734 0 2.578.155 5.235.702 7.578-27.188-1.484-51.25-13.828-67.578-33.67C8.36 26.483 6.64 31.483 6.64 37.577c0 11.25 5.782 21.25 14.688 27.188-5.39-.157-10.39-1.64-14.844-4.063v.39c0 15.938 11.329 29.22 26.328 32.188-2.812.782-5.78 1.173-8.75 1.173-2.03 0-4.062-.234-6.093-.625 4.06 12.97 16.327 22.656 30.546 22.813-11.094 8.907-25.39 15.547-40.703 15.547-2.657 0-5.235-.156-7.813-.546C14.453 140.94 31.875 145 50.39 145c60.313 0 93.282-50 93.282-93.36v-4.296C150 42.734 155.547 37.03 160 30.312z"/></svg>
