<svg xmlns="http://www.w3.org/2000/svg" viewBox="0 0 160 160"><path fill-rule="evenodd" d="M80 1C35.703 1 0 36.938 0 81c0 37.188 25.547 68.672 60 77.578v-16.094c-25.156-7.578-31.875-26.64-32.188-27.422-.234-.937.157-2.03 1.094-2.578.703-.546 1.797-.39 2.578.39.157 0 13.672 13.282 30.39 12.97 1.25-3.36 3.282-6.72 6.485-9.14C46.874 113.42 30 100.843 30 81c0-8.125 3.36-16.328 9.297-22.97-1.875-7.577-2.656-16.874.703-23.67 8.516.703 16.875 5 23.125 8.828C68.36 41.938 73.905 41 80 41c6.094 0 11.64.938 16.875 2.188 6.25-3.83 14.61-8.126 23.125-8.83 3.36 6.798 2.422 16.095.703 23.673C126.64 64.673 130 72.876 130 81c0 19.844-16.875 32.422-38.36 35.703 6.72 5.234 8.36 14.453 8.36 20.938v20.938c34.453-8.906 60-40.39 60-77.578 0-44.063-35.938-80-80-80z"/></svg>
